<svg width="40" height="40" viewBox="0 0 40 40" fill="none" xmlns="http://www.w3.org/2000/svg">
<path fill-rule="evenodd" clip-rule="evenodd" d="M30.3743 13.6422C21.017 22.9995 22.9859 21.0298 13.6293 30.3872C14.6118 32.9141 14.0831 35.8939 12.0425 37.9345C10.1656 39.8105 7.49457 40.4084 5.11185 39.7282L9.37467 35.4654C9.78279 35.0573 9.78279 34.3909 9.37467 33.9828L6.01769 30.625C5.60876 30.2169 4.94323 30.2169 4.5343 30.625L0.271477 34.8886C-0.408717 32.5051 0.189202 29.8349 2.06605 27.958C4.10663 25.9174 7.08563 25.3887 9.61335 26.3712C18.9699 17.0138 17.001 18.9835 26.3575 9.62617C25.3759 7.09845 25.9861 4.03717 27.9444 2.07887C29.9035 0.120561 32.4923 -0.395083 34.8758 0.284297L30.6122 4.54793C30.2041 4.95605 30.2041 5.62239 30.6122 6.03051L33.9692 9.38749C34.3781 9.79642 35.0436 9.79642 35.4526 9.38749L39.7154 5.12467C40.3956 7.5082 39.8799 10.097 37.9208 12.0553C35.9625 14.0136 32.9012 14.6246 30.3743 13.6422ZM19.3055 25.9565L25.9567 19.3053C26.9334 18.3286 28.7402 20.1362 27.7643 21.1121L21.1123 27.7641C20.1364 28.74 18.3288 26.9332 19.3055 25.9565ZM7.32105 5.22812L18.5267 16.4338L16.434 18.5265L5.22834 7.32084L3.70666 7.05691L0.000214005 1.9746L1.97481 0L7.05712 3.70645L7.32105 5.22812ZM22.1476 28.1421L28.1423 22.1483L39.2877 33.2928C40.1162 34.1221 40.24 35.3505 39.5631 36.0275L36.0277 39.5637C35.3507 40.2398 34.1223 40.1168 33.2931 39.2875L22.1476 28.1421Z" fill="#1AABEA"/>
</svg>
