<svg width="40" height="40" viewBox="0 0 40 40" fill="none" xmlns="http://www.w3.org/2000/svg">
<path d="M38.9949 18.7406C26.1501 15.84 24.1605 13.8503 21.26 1.00516C21.1271 0.418065 20.6045 0 20.0006 0C19.3968 0 18.8742 0.418065 18.7413 1.00516C15.8395 13.8503 13.8512 15.84 1.00642 18.7406C0.418051 18.8748 0 19.3961 0 20C0 20.6039 0.418051 21.1252 1.00642 21.2594C13.8512 24.1613 15.8395 26.151 18.7413 38.9948C18.8742 39.5819 19.3968 40 20.0006 40C20.6045 40 21.1271 39.5819 21.26 38.9948C24.1618 26.151 26.1501 24.1613 38.9949 21.2594C39.5832 21.1252 40 20.6039 40 20C40 19.3961 39.582 18.8748 38.9949 18.7406Z" fill="url(#paint0_linear_22953_50119)"/>
<defs>
<linearGradient id="paint0_linear_22953_50119" x1="-6.25" y1="-18.125" x2="28.125" y2="48.75" gradientUnits="userSpaceOnUse">
<stop stop-color="#FC03E1"/>
<stop offset="1" stop-color="#FE9BF3"/>
</linearGradient>
</defs>
</svg>
