<svg width="20" height="21" viewBox="0 0 20 21" fill="none" xmlns="http://www.w3.org/2000/svg">
<path d="M19.4974 9.87032C13.0751 8.42 12.0803 7.42516 10.63 1.00258C10.5635 0.709032 10.3022 0.5 10.0003 0.5C9.6984 0.5 9.43711 0.709032 9.37067 1.00258C7.91974 7.42516 6.92558 8.42 0.503209 9.87032C0.209025 9.93742 0 10.1981 0 10.5C0 10.8019 0.209025 11.0626 0.503209 11.1297C6.92558 12.5806 7.91974 13.5755 9.37067 19.9974C9.43711 20.291 9.6984 20.5 10.0003 20.5C10.3022 20.5 10.5635 20.291 10.63 19.9974C12.0809 13.5755 13.0751 12.5806 19.4974 11.1297C19.7916 11.0626 20 10.8019 20 10.5C20 10.1981 19.791 9.93742 19.4974 9.87032Z" fill="#1E1E1E"/>
</svg>
