<svg width="40" height="40" viewBox="0 0 40 40" fill="none" xmlns="http://www.w3.org/2000/svg">
<path d="M26.9833 3.33331H13.0166C6.94992 3.33331 3.33325 6.94998 3.33325 13.0166V26.9666C3.33325 33.05 6.94992 36.6666 13.0166 36.6666H26.9666C33.0333 36.6666 36.6499 33.05 36.6499 26.9833V13.0166C36.6666 6.94998 33.0499 3.33331 26.9833 3.33331ZM18.3166 28.3333C18.3166 28.5 18.2833 28.65 18.2166 28.8166C18.0833 29.1166 17.8499 29.3666 17.5333 29.5C17.3833 29.5666 17.2166 29.6 17.0499 29.6C16.8833 29.6 16.7333 29.5666 16.5666 29.5C16.4166 29.4333 16.2833 29.35 16.1666 29.2333L11.2499 24.3166C10.7666 23.8333 10.7666 23.0333 11.2499 22.55C11.7333 22.0666 12.5333 22.0666 13.0166 22.55L15.7999 25.3333V11.6666C15.7999 10.9833 16.3666 10.4166 17.0499 10.4166C17.7333 10.4166 18.3166 10.9833 18.3166 11.6666V28.3333ZM28.7333 17.4666C28.4833 17.7166 28.1666 17.8333 27.8499 17.8333C27.5332 17.8333 27.2166 17.7166 26.9666 17.4666L24.1833 14.6833V28.3333C24.1833 29.0166 23.6166 29.5833 22.9333 29.5833C22.2499 29.5833 21.6833 29.0166 21.6833 28.3333V11.6666C21.6833 11.5 21.7166 11.35 21.7833 11.1833C21.9166 10.8833 22.1499 10.6333 22.4666 10.5C22.7666 10.3666 23.1166 10.3666 23.4166 10.5C23.5666 10.5666 23.6999 10.65 23.8166 10.7666L28.7333 15.6833C29.2166 16.1833 29.2166 16.9833 28.7333 17.4666Z" fill="#57D6AC"/>
</svg>
